<svg viewBox="0 0 46 49" fill="none" xmlns="http://www.w3.org/2000/svg"
    class="h-[49px] w-[46px] lg:h-[64px] lg:w-[69px]">
    <mask id="mask0_428_5007" style="mask-type:luminance" maskUnits="userSpaceOnUse" x="0" y="32" width="40"
        height="17">
        <path fill-rule="evenodd" clip-rule="evenodd"
            d="M13.8988 32.3911L22.7831 39.6974L27.1726 36.0443L30.7209 33.5471L31.8817 36.0443L33.9216 38.0012L35.3767 38.4434L38.1723 38.5792L39.4862 43.6112L18.2321 48.6463L0 42.3296L0.87397 36.0443L7.51683 32.3911H13.8988Z"
            fill="white" />
    </mask>
    <g mask="url(#mask0_428_5007)">
        <ellipse opacity="0.201431" cx="21.1192" cy="38.5792" rx="15.9348" ry="5.03205" fill="#46508D" />
    </g>
    <mask id="mask1_428_5007" style="mask-type:luminance" maskUnits="userSpaceOnUse" x="6" y="0" width="40" height="40">
        <path fill-rule="evenodd" clip-rule="evenodd" d="M6.30267 0H46V39.6973H6.30267V0Z" fill="white" />
    </mask>
    <g mask="url(#mask1_428_5007)">
        <path fill-rule="evenodd" clip-rule="evenodd"
            d="M44.7713 31.4255C44.7733 27.5172 41.6126 24.3104 37.7564 24.3084C33.8961 24.3063 30.7255 27.4838 30.721 31.3595C30.7163 35.2155 33.8773 38.4045 37.7104 38.4111C41.6387 38.4179 44.7692 35.3207 44.7713 31.4255ZM7.89427 6.60335C7.82435 6.97929 7.76163 7.27854 7.71467 7.58019C7.6737 7.84342 7.64306 8.10873 7.62058 8.3742C7.39618 11.021 7.54858 13.655 7.95931 16.2714C8.62772 20.5296 10.0383 24.5232 12.3183 28.1911C14.894 32.3349 18.2177 35.7315 22.3704 38.3017C22.6728 38.4889 22.895 38.4892 23.1986 38.3104C25.4969 36.9572 27.5555 35.3038 29.4194 33.3983C29.6174 33.1959 29.6972 33.0196 29.6159 32.7311C29.5374 32.4529 29.5262 32.1513 29.515 31.8589C29.3707 28.0964 31.7656 24.7094 35.3512 23.6206C35.6086 23.5425 35.7424 23.4281 35.8384 23.1761C36.8866 20.4225 37.5339 17.5769 37.8261 14.6467C38.0781 12.1181 38.193 9.59309 37.7542 7.06907C37.6981 6.74623 37.5827 6.70765 37.2982 6.69497C35.8127 6.62878 34.3166 6.62509 32.8459 6.43231C29.4061 5.98143 26.3347 4.63474 23.6919 2.35357C23.3833 2.08722 23.0822 1.81228 22.8361 1.59342C21.9328 2.2707 21.1065 2.97068 20.2043 3.55232C16.9445 5.65411 13.2909 6.41241 9.48422 6.59974C8.95517 6.62573 8.42372 6.60335 7.89427 6.60335ZM37.1596 23.1699C41.7117 22.9204 45.1365 25.9349 45.8528 29.7385C46.6067 33.7415 44.4021 37.637 40.6588 39.05C36.7913 40.5099 31.9431 38.8635 30.1085 34.3896C29.3292 35.0903 28.5643 35.8102 27.7651 36.4895C26.4128 37.6389 24.9526 38.6338 23.4061 39.5069C22.9595 39.759 22.6073 39.7634 22.1601 39.5044C19.7455 38.1062 17.5969 36.3725 15.6602 34.3723C11.371 29.9425 8.55466 24.7081 7.19927 18.6857C6.46629 15.429 6.15853 12.131 6.36605 8.79706C6.42629 7.82976 6.61798 6.86976 6.7675 5.90929C6.8319 5.49507 7.13207 5.35388 7.52279 5.35163C8.21473 5.3477 8.90786 5.36158 9.5982 5.32499C13.2181 5.13317 16.6861 4.38153 19.7534 2.33325C20.633 1.74591 21.4164 1.00911 22.2177 0.31049C22.678 -0.0908849 22.8592 -0.116718 23.2791 0.312817C25.91 3.00331 29.0972 4.5991 32.8009 5.17842C34.4088 5.42993 36.0235 5.53727 37.6505 5.43499C38.5922 5.3757 38.6831 5.454 38.8676 6.38046C39.3674 8.89052 39.3215 11.4187 39.1131 13.9514C38.8574 17.0594 38.226 20.0874 37.1719 23.0242C37.1591 23.0599 37.1647 23.1022 37.1596 23.1699Z"
            fill="#324376" />
    </g>
    <path fill-rule="evenodd" clip-rule="evenodd"
        d="M34.2317 10.8312C32.2935 10.6882 30.5092 10.3948 28.7686 9.87805C26.6635 9.25307 24.6877 8.35464 22.8746 7.13098C22.5869 6.9368 22.3921 6.90223 22.0718 7.10647C19.2818 8.8859 16.2007 9.91686 12.929 10.4354C12.248 10.5434 11.5625 10.6243 10.8159 10.7263C10.8636 20.4656 14.4151 28.5161 22.5681 34.4572C23.1409 34.0302 23.7218 33.6571 24.23 33.2057C25.2566 32.2938 26.249 31.3445 27.2444 30.3994C27.5672 30.0929 27.8257 30.0497 28.1431 30.3135C28.4609 30.5776 28.5001 30.9313 28.2165 31.2388C26.6535 32.9344 24.9186 34.4359 22.9585 35.6825C22.6557 35.8751 22.4046 35.7623 22.1484 35.5953C20.0677 34.2392 18.2343 32.6118 16.6188 30.7483C13.2448 26.8562 11.1822 22.3607 10.2289 17.3628C9.7893 15.0579 9.6393 12.7269 9.65905 10.3845C9.66394 9.79942 9.84476 9.64011 10.5447 9.59392C12.817 9.44388 15.0294 9.01049 17.1764 8.26123C18.8935 7.66202 20.505 6.8639 21.9993 5.84024C22.4861 5.50694 22.576 5.50599 23.0635 5.85156C26.0804 7.98998 29.464 9.18111 33.148 9.59486C33.6646 9.65284 34.1833 9.69431 34.7014 9.73862C35.1318 9.77546 35.3629 9.9918 35.3704 10.4101C35.4491 14.8409 34.7978 19.149 33.1014 23.2802C32.9167 23.73 32.6126 23.8947 32.2412 23.754C31.9108 23.6289 31.8063 23.2976 31.9829 22.8493C32.9409 20.4165 33.5876 17.9047 33.889 15.3174C34.0606 13.843 34.1191 12.3558 34.2317 10.8312Z"
        fill="#324376" />
    <path fill-rule="evenodd" clip-rule="evenodd"
        d="M27.1726 17.2887C26.3436 17.1695 25.6111 17.0459 24.8738 16.9653C24.4462 16.9184 24.1596 16.7724 23.9761 16.3474C23.6839 15.6703 23.3236 15.0227 22.9598 14.2984C22.6029 15.0106 22.264 15.6552 21.9555 16.3142C21.7624 16.7268 21.4683 16.9199 21.0159 16.9681C20.2855 17.0457 19.5604 17.173 18.9511 17.2622C19.4396 17.8053 19.9259 18.3886 20.4603 18.9237C20.7752 19.239 20.8656 19.555 20.7801 19.9823C20.6355 20.7042 20.5326 21.4344 20.4007 22.2313C21.1639 21.8317 21.8622 21.4786 22.5476 21.1017C22.8777 20.9203 23.1727 20.9204 23.5025 21.1013C24.1865 21.4767 24.883 21.8292 25.6398 22.2254C25.5056 21.407 25.3985 20.6594 25.2551 19.9189C25.1802 19.5313 25.2782 19.2343 25.5487 18.9617C26.0724 18.4341 26.585 17.8955 27.1726 17.2887ZM19.0292 23.3155C19.1699 22.5028 19.2681 21.6228 19.486 20.7737C19.665 20.0767 19.5485 19.5883 18.9764 19.122C18.3485 18.6105 17.8091 17.991 17.2195 17.4307C17.0076 17.2291 16.8617 17.026 16.9547 16.7201C17.0541 16.3929 17.3247 16.3056 17.6136 16.2636C18.6173 16.1174 19.6243 15.9914 20.6251 15.8282C20.7875 15.8016 20.9879 15.6586 21.0646 15.5132C21.5445 14.6035 21.9996 13.6805 22.4509 12.756C22.5885 12.4742 22.7684 12.2959 23.1005 12.3006C23.4176 12.3051 23.5823 12.4876 23.7117 12.7509C24.165 13.674 24.6319 14.5905 25.085 15.5137C25.1808 15.7089 25.2823 15.8167 25.5283 15.8452C26.522 15.9604 27.5113 16.1141 28.5023 16.2527C28.8116 16.2958 29.092 16.3897 29.1977 16.7226C29.2995 17.0434 29.1166 17.2624 28.9042 17.469C28.1849 18.1682 27.4721 18.8743 26.7486 19.5692C26.589 19.7225 26.525 19.8571 26.5713 20.0957C26.7722 21.1317 26.9569 22.1716 27.1096 23.2157C27.1398 23.422 27.0665 23.7164 26.927 23.8572C26.7315 24.0545 26.44 24.1089 26.1413 23.9459C25.2269 23.4468 24.2988 22.9731 23.3852 22.4729C23.1712 22.3558 23.01 22.3501 22.7926 22.4692C21.8793 22.9697 20.9582 23.4561 20.0323 23.9328C19.5185 24.1974 19.0242 23.9102 19.0292 23.3155Z"
        fill="#324376" />
    <path fill-rule="evenodd" clip-rule="evenodd"
        d="M36.1469 33.6822C37.5962 32.3538 38.9977 31.0692 40.3993 29.7846C40.956 29.2743 41.5106 28.7616 42.0699 28.2542C42.4628 27.8976 42.819 27.861 43.0552 28.1424C43.3061 28.4415 43.239 28.8419 42.8699 29.1795C40.7855 31.0863 38.7004 32.9924 36.6129 34.8957C36.1004 35.3629 35.8022 35.3357 35.3674 34.7901C34.6953 33.9466 34.0267 33.1003 33.3598 32.2525C33.0697 31.8836 33.0692 31.48 33.348 31.2353C33.6414 30.9779 34.0383 31.0572 34.357 31.4508C34.9458 32.1779 35.5284 32.9102 36.1469 33.6822Z"
        fill="#324376" />
</svg>