<svg viewBox="0 0 69 64" fill="none" xmlns="http://www.w3.org/2000/svg"
    class="h-[50px] w-[54px] lg:h-[64px] lg:w-[69px]">
    <mask id="mask0_428_4144" style="mask-type:luminance" maskUnits="userSpaceOnUse" x="10" y="43" width="52"
        height="21">
        <path fill-rule="evenodd" clip-rule="evenodd"
            d="M10.0825 49.6882L12.2336 50.6729L13.9348 53.3454L12.9599 56.021L11.4025 57.083L25.3398 63.6014L45.6372 61.9831L61.1549 58.8891L58.3199 49.6882L54.082 45.4835L39.7873 43.2012L24.7773 43.8635L15.3899 46.3101L10.0825 49.6882Z"
            fill="white" />
    </mask>
    <g mask="url(#mask0_428_4144)">
        <ellipse opacity="0.201431" cx="32.8049" cy="52.7734" rx="23.085" ry="7.29" fill="#46508D" />
    </g>
    <path fill-rule="evenodd" clip-rule="evenodd"
        d="M42.5449 16.2125C42.5449 14.0359 42.7499 11.9278 42.5008 9.876C42.0316 6.01198 39.0156 3.19446 35.074 2.59516C31.5942 2.06602 27.9162 4.09619 26.2627 7.39846C24.8456 10.229 25.5389 13.2365 25.3398 16.194H27.2674C27.2674 14.4526 27.2399 12.7641 27.2733 11.0768C27.3401 7.70471 30.0512 4.78968 33.3558 4.49615C36.8481 4.18624 40.0718 6.53937 40.5919 9.99277C40.8531 11.7272 40.7254 13.5216 40.7707 15.2889C40.7785 15.5942 40.7718 15.8998 40.7718 16.2125H42.5449ZM39.0938 16.2025C39.0938 14.2865 39.2222 12.4303 39.0626 10.5996C38.8432 8.08291 36.7922 6.26243 34.2619 6.08297C31.9447 5.91879 29.4916 7.57334 29.0872 9.94954C28.7418 11.9791 28.849 14.0874 28.7541 16.2025H39.0938ZM34.0893 17.9375C30.3951 17.9375 26.7008 17.938 23.0066 17.9374C20.5296 17.9369 19.3899 19.0755 19.3897 21.5545C19.3896 27.2703 19.3899 32.9862 19.3899 38.702C19.3899 41.0386 20.6011 42.2584 22.9354 42.2592C30.3245 42.2612 37.7135 42.2612 45.1024 42.2592C47.4282 42.2584 48.6381 41.0375 48.6389 38.691C48.6408 32.9488 48.6027 27.206 48.6577 21.4644C48.676 19.5574 47.4902 17.8562 45.1714 17.9133C41.4794 18.0043 37.7836 17.9375 34.0893 17.9375ZM23.781 16.2832C23.781 14.3742 23.7308 12.6032 23.7902 10.836C23.9838 5.08106 28.9076 0.597373 34.5983 0.95342C39.9687 1.28942 44.0888 5.55372 44.2533 10.9757C44.2974 12.4301 44.2668 13.8869 44.2703 15.3428C44.2709 15.6261 44.2704 15.9096 44.2704 16.216C45.0146 16.2749 45.6671 16.2932 46.3096 16.3834C48.4989 16.6906 50.1912 18.5646 50.2 20.7852C50.2246 26.9789 50.2293 33.1728 50.1978 39.3664C50.1854 41.82 48.1334 43.8449 45.6947 43.8504C37.9108 43.8683 30.1265 43.8676 22.3424 43.8506C19.8407 43.845 17.8313 41.7655 17.8267 39.2179C17.8159 33.2093 17.8211 27.2009 17.822 21.1923C17.8225 18.362 19.6824 16.4073 22.4921 16.2856C22.8808 16.2687 23.2709 16.2832 23.781 16.2832Z"
        fill="#324376" />
    <path fill-rule="evenodd" clip-rule="evenodd"
        d="M7.35078 4.48691C7.35948 5.983 8.59858 7.195 10.1013 7.17746C11.6124 7.15992 12.8154 5.9455 12.81 4.44313C12.8046 2.95412 11.5614 1.73922 10.0581 1.75403C8.54703 1.769 7.34208 2.98535 7.35078 4.48691ZM10.9354 19.5762H15.3899V21.1834H9.30361C9.27734 20.8946 9.22727 20.5957 9.22694 20.2968C9.22153 16.7093 9.21512 13.1217 9.23252 9.53432C9.23515 8.99914 9.13633 8.70508 8.53795 8.49599C6.44226 7.76316 5.33515 5.71692 5.75967 3.54481C6.13971 1.60013 8.04891 0.106777 10.1336 0.123677C12.1679 0.139934 14.0464 1.65437 14.4074 3.56927C14.8175 5.7438 13.6802 7.73306 11.6065 8.5446C11.3409 8.64842 10.9664 8.95118 10.9639 9.16541C10.9236 12.5907 10.9354 16.0165 10.9354 19.5762Z"
        fill="#324376" />
    <path fill-rule="evenodd" clip-rule="evenodd"
        d="M56.0453 4.42924C56.0403 5.92744 57.2358 7.13985 58.7382 7.1599C60.2318 7.17995 61.4738 5.96849 61.482 4.4836C61.4902 2.98572 60.2985 1.77731 58.7911 1.75486C57.3019 1.73273 56.0504 2.95156 56.0453 4.42924ZM53.4599 21.1634V19.5399H57.8594C57.8821 19.2126 57.9149 18.9588 57.9153 18.7049C57.9182 15.6108 57.8989 12.5164 57.9319 9.42268C57.938 8.85832 57.7291 8.65994 57.2244 8.47583C55.116 7.70653 53.9801 5.58592 54.4767 3.45008C54.95 1.41431 57.0234 -0.0526213 59.1546 0.140628C61.3714 0.341735 63.0937 2.15074 63.1772 4.36548C63.2431 6.1121 62.0978 7.83851 60.3396 8.44937C59.7175 8.66556 59.6016 8.96305 59.6057 9.54199C59.6312 13.0893 59.5868 16.6375 59.642 20.1843C59.6552 21.0361 59.3803 21.2081 58.5841 21.1809C56.9054 21.1231 55.2231 21.1634 53.4599 21.1634Z"
        fill="#324376" />
    <path fill-rule="evenodd" clip-rule="evenodd"
        d="M7.35275 53.3242C7.34455 54.8114 8.54009 56.0051 10.0561 56.023C11.5532 56.041 12.8051 54.8365 12.8122 53.3717C12.8194 51.8891 11.6178 50.6914 10.1047 50.6732C8.60097 50.6549 7.36096 51.8495 7.35275 53.3242ZM9.22479 39.8135H15.3899V41.388H10.9773C10.9596 41.7154 10.9343 41.9675 10.934 42.2196C10.9307 44.277 10.9453 46.3343 10.923 48.3914C10.9174 48.8962 11.02 49.1659 11.586 49.3592C13.6873 50.0772 14.8185 52.0883 14.409 54.2182C14.0386 56.1445 12.1402 57.6395 10.0724 57.6334C8.03483 57.6276 6.15199 56.1621 5.76568 54.2811C5.32701 52.1461 6.42179 50.1145 8.51108 49.3903C9.14865 49.1693 9.24153 48.8608 9.23595 48.3003C9.21052 45.7684 9.22479 43.2363 9.22479 40.7043V39.8135Z"
        fill="#324376" />
    <path fill-rule="evenodd" clip-rule="evenodd"
        d="M61.5066 53.3594C61.5138 51.8806 60.2989 50.6774 58.7906 50.6699C57.285 50.6623 56.0486 51.8587 56.0402 53.3315C56.0318 54.7995 57.2615 56.0157 58.7599 56.0211C60.2737 56.0265 61.4993 54.8389 61.5066 53.3594ZM57.8032 41.4077H55.6301H53.4599V39.8135H59.5924C59.6064 40.1081 59.6309 40.3882 59.6312 40.6685C59.6343 43.2307 59.6452 45.7931 59.6232 48.3551C59.6186 48.8917 59.7407 49.1717 60.3304 49.3768C62.3535 50.0805 63.4457 51.9697 63.1244 54.0326C62.8237 55.9627 61.1414 57.4671 59.1118 57.6206C57.068 57.7754 55.176 56.5181 54.5493 54.5884C53.8482 52.4304 55.0288 50.1716 57.2676 49.3129C57.5299 49.2122 57.8898 48.9045 57.8936 48.6878C57.935 46.3641 57.9144 44.0396 57.9065 41.7152C57.9064 41.643 57.8597 41.5708 57.8032 41.4077Z"
        fill="#324376" />
    <path fill-rule="evenodd" clip-rule="evenodd"
        d="M4.32772 32.4679C5.79842 32.4916 7.06046 31.2292 7.07346 29.7214C7.08646 28.2099 5.86635 26.942 4.37956 26.9221C2.91439 26.9023 1.63902 28.1734 1.62586 29.6664C1.6127 31.1588 2.85215 32.4441 4.32772 32.4679ZM8.72985 28.8691H15.3899V30.4975H8.72303C7.75675 33.1611 5.88547 34.4619 3.65879 34.0773C1.53578 33.7105 0.0124301 31.8969 7.9487e-05 29.7213C-0.0125961 27.5078 1.4919 25.7034 3.68268 25.3043C5.86305 24.907 7.71011 26.1971 8.72985 28.8691Z"
        fill="#324376" />
    <mask id="mask1_428_4144" style="mask-type:luminance" maskUnits="userSpaceOnUse" x="53" y="25" width="16"
        height="10">
        <path fill-rule="evenodd" clip-rule="evenodd" d="M53.4599 25.2336H68.8499V34.1436H53.4599V25.2336Z"
            fill="white" />
    </mask>
    <g mask="url(#mask1_428_4144)">
        <path fill-rule="evenodd" clip-rule="evenodd"
            d="M64.472 26.9252C62.9789 26.95 61.7646 28.2186 61.7854 29.7322C61.8062 31.25 63.063 32.5076 64.5337 32.4822C66.0075 32.4568 67.2468 31.1642 67.2294 29.6702C67.2119 28.1702 65.9368 26.9008 64.472 26.9252ZM60.152 30.4952H53.4599V28.9054H60.1141C61.1841 26.1586 63.0519 24.8752 65.2462 25.3201C67.47 25.7711 68.8918 27.5736 68.849 29.8873C68.81 31.9768 67.1985 33.8233 65.1239 34.1034C63.3038 34.3492 61.007 33.5085 60.152 30.4952Z"
            fill="#324376" />
    </g>
    <path fill-rule="evenodd" clip-rule="evenodd"
        d="M34.637 34.1548C34.5686 33.6114 34.5318 33.113 34.4295 32.6308C34.3977 32.4811 34.1947 32.2868 34.0571 32.274C33.9187 32.261 33.6615 32.4236 33.6343 32.5524C33.5244 33.0739 33.4831 33.612 33.415 34.1548H34.637ZM35.7127 28.7016C35.7006 27.673 34.9474 26.871 34.0048 26.8832C33.0614 26.8952 32.3268 27.7092 32.3305 28.7382C32.3344 29.7792 33.0547 30.531 34.0387 30.5211C35.0233 30.5111 35.7249 29.7486 35.7127 28.7016ZM36.4137 35.7636H31.6237C31.797 34.5051 31.9835 33.3044 32.1119 32.0966C32.1388 31.8429 32.0209 31.4912 31.853 31.3067C30.7462 30.0899 30.4691 28.5607 31.1455 27.1443C31.775 25.8255 33.1579 25.05 34.4853 25.2711C35.9177 25.5096 37.0305 26.7074 37.23 28.3183C37.373 29.4727 36.9985 30.4775 36.198 31.2573C35.902 31.5459 35.8265 31.7858 35.9026 32.2115C36.107 33.3569 36.2397 34.5173 36.4137 35.7636Z"
        fill="#324376" />
</svg>